<svg width="36" height="36" viewBox="0 0 36 36" fill="none" xmlns="http://www.w3.org/2000/svg">
  <rect width="36" height="36" rx="18" fill="#FF4C10"/>
  <path d="M10.5 27C10.5 27 9 27 9 25.5C9 24 10.5 19.5 18 19.5C25.5 19.5 27 24 27 25.5C27 27 25.5 27 25.5 27H10.5ZM18 18C19.1935 18 20.3381 17.5259 21.182 16.682C22.0259 15.8381 22.5 14.6935 22.5 13.5C22.5 12.3065 22.0259 11.1619 21.182 10.318C20.3381 9.47411 19.1935 9 18 9C16.8065 9 15.6619 9.47411 14.818 10.318C13.9741 11.1619 13.5 12.3065 13.5 13.5C13.5 14.6935 13.9741 15.8381 14.818 16.682C15.6619 17.5259 16.8065 18 18 18Z" fill="#242531"/>
</svg>
