<svg width="197" height="54" viewBox="0 0 197 54" fill="none" xmlns="http://www.w3.org/2000/svg">
<g clip-path="url(#clip0_258_1699)">
<path d="M0.5 8.64C0.5 3.86827 4.44161 0 9.30382 0H187.581C192.443 0 196.385 3.86827 196.385 8.64V45.36C196.385 50.1318 192.443 54 187.581 54H9.30382C4.44161 54 0.5 50.1318 0.5 45.36V8.64Z" fill="#FFDD00"/>
<path d="M39.8878 17.7592L39.8637 17.7453L39.8076 17.7285C39.8302 17.7472 39.8583 17.758 39.8878 17.7592Z" fill="#0D0C22"/>
<path d="M40.2419 20.2283L40.215 20.2357L40.2419 20.2283Z" fill="#0D0C22"/>
<path d="M39.8974 17.755C39.8942 17.7546 39.8913 17.7539 39.8885 17.7529C39.8881 17.7549 39.8881 17.7568 39.8885 17.7588C39.8917 17.7583 39.8946 17.757 39.8974 17.755Z" fill="#0D0C22"/>
<path d="M39.8881 17.7605H39.8934V17.7573L39.8881 17.7605Z" fill="#0D0C22"/>
<path d="M40.2204 20.2238L40.261 20.201L40.2761 20.1926L40.2898 20.1782C40.2643 20.1892 40.2405 20.2046 40.2204 20.2238Z" fill="#0D0C22"/>
<path d="M39.9571 17.8133L39.9172 17.7761L39.8903 17.7617C39.905 17.7868 39.9287 17.8054 39.9571 17.8133Z" fill="#0D0C22"/>
<path d="M29.9468 41.7717C29.915 41.7851 29.8871 41.8063 29.8658 41.8331L29.8909 41.8173C29.9079 41.8021 29.9321 41.7837 29.9468 41.7717Z" fill="#0D0C22"/>
<path d="M35.7605 40.6494C35.7605 40.6141 35.7429 40.6205 35.7472 40.7461C35.7472 40.7359 35.7515 40.7256 35.7533 40.7158C35.7557 40.6935 35.7576 40.6716 35.7605 40.6494Z" fill="#0D0C22"/>
<path d="M35.16 41.7717C35.1282 41.7851 35.1004 41.8063 35.079 41.8331L35.1041 41.8173C35.1212 41.8021 35.1454 41.7837 35.16 41.7717Z" fill="#0D0C22"/>
<path d="M25.85 42.0389C25.8259 42.0185 25.7963 42.0047 25.7648 41.9998C25.7903 42.0121 25.8159 42.0241 25.833 42.0333L25.85 42.0389Z" fill="#0D0C22"/>
<path d="M24.93 41.173C24.9262 41.1363 24.9148 41.101 24.8964 41.0688C24.9094 41.102 24.9203 41.1363 24.9291 41.1712L24.93 41.173Z" fill="#0D0C22"/>
<path d="M31.118 25.6849C29.8531 26.2163 28.4176 26.8189 26.5572 26.8189C25.7789 26.8174 25.0045 26.7126 24.2548 26.5074L25.5415 39.4723C25.587 40.0141 25.8386 40.5195 26.2462 40.8876C26.6537 41.2561 27.1875 41.4604 27.7416 41.4601C27.7416 41.4601 29.566 41.5533 30.1748 41.5533C30.83 41.5533 32.7946 41.4601 32.7946 41.4601C33.3486 41.4601 33.8823 41.2557 34.2898 40.8876C34.6972 40.5191 34.9487 40.0141 34.9943 39.4723L36.3724 25.1456C35.7565 24.9392 35.135 24.802 34.4343 24.802C33.2224 24.8015 32.246 25.2111 31.118 25.6849Z" fill="white"/>
<path d="M20.2742 20.1536L20.296 20.1735L20.3102 20.1819C20.2993 20.1712 20.2872 20.1617 20.2742 20.1536Z" fill="#0D0C22"/>
<path d="M42.3249 18.9571L42.1315 17.9979C41.9574 17.1373 41.5629 16.3242 40.6627 16.0131C40.3743 15.9136 40.0467 15.8708 39.8255 15.6649C39.6043 15.4589 39.5389 15.139 39.4878 14.8424C39.3932 14.298 39.304 13.753 39.2069 13.2096C39.1231 12.7423 39.0566 12.2174 38.8383 11.7887C38.5542 11.2131 37.9644 10.8765 37.3778 10.6538C37.0772 10.5437 36.7704 10.4505 36.4591 10.3748C34.9938 9.99542 33.4531 9.85594 31.9456 9.77646C30.1363 9.67848 28.322 9.70798 26.5169 9.8648C25.1734 9.98473 23.7583 10.1298 22.4815 10.5859C22.0148 10.7528 21.534 10.9532 21.1792 11.307C20.7438 11.7417 20.6017 12.4141 20.9195 12.9561C21.1455 13.3411 21.5283 13.6131 21.9343 13.793C22.4632 14.0249 23.0154 14.2013 23.582 14.3193C25.1596 14.6616 26.7936 14.7959 28.4053 14.8531C30.1916 14.9239 31.9809 14.8665 33.7587 14.6815C34.1983 14.6341 34.6372 14.5772 35.0753 14.5109C35.5912 14.4333 35.9223 13.7712 35.7703 13.31C35.5883 12.7586 35.0994 12.5447 34.5465 12.6279C34.4651 12.6405 34.3841 12.6521 34.3026 12.6637L34.2438 12.6721C34.0565 12.6953 33.8692 12.717 33.6819 12.7372C33.2951 12.7781 32.9072 12.8116 32.5184 12.8376C31.6477 12.8971 30.7745 12.9245 29.9019 12.9259C29.0444 12.9259 28.1864 12.9022 27.3308 12.8469C26.9404 12.8218 26.551 12.7899 26.1626 12.7511C25.9858 12.733 25.8096 12.7139 25.6334 12.6925L25.4657 12.6716L25.4292 12.6665L25.2553 12.6418C24.9 12.5893 24.5447 12.5289 24.1932 12.4559C24.1577 12.4482 24.126 12.4288 24.1032 12.401C24.0805 12.3732 24.0681 12.3386 24.0681 12.3029C24.0681 12.2673 24.0805 12.2327 24.1032 12.2049C24.126 12.1771 24.1577 12.1577 24.1932 12.1499H24.1998C24.5044 12.0862 24.8114 12.0319 25.1193 11.9844C25.222 11.9686 25.325 11.9531 25.4282 11.9379H25.4311C25.6239 11.9254 25.8177 11.8915 26.0095 11.8691C27.6789 11.6987 29.3582 11.6406 31.0356 11.6953C31.8499 11.7185 32.6639 11.7655 33.4744 11.8463C33.6488 11.864 33.8222 11.8826 33.9956 11.9035C34.0619 11.9114 34.1287 11.9207 34.1955 11.9287L34.33 11.9477C34.7223 12.005 35.1125 12.0746 35.5007 12.1565C36.0758 12.2792 36.8143 12.3192 37.0703 12.9376C37.1516 13.1338 37.1887 13.3518 37.2336 13.5578L37.2912 13.8205C37.2926 13.8252 37.2937 13.83 37.2944 13.8349C37.43 14.4548 37.5656 15.0747 37.7011 15.6946C37.7112 15.7404 37.7116 15.7877 37.7019 15.8336C37.6925 15.8795 37.6734 15.923 37.6461 15.9613C37.6188 15.9997 37.5835 16.0321 37.5429 16.0565C37.5023 16.0809 37.4566 16.0969 37.4095 16.1033H37.4055L37.3228 16.1145L37.2408 16.1252C36.9811 16.1583 36.7211 16.1893 36.461 16.2182C35.9484 16.2755 35.435 16.3251 34.9208 16.3669C33.8991 16.4503 32.8753 16.505 31.8495 16.531C31.3268 16.5447 30.8042 16.5511 30.2818 16.5501C28.2025 16.5485 26.1251 16.4299 24.0596 16.1949C23.836 16.1689 23.6124 16.141 23.3887 16.1126C23.5621 16.1345 23.2627 16.0959 23.2021 16.0875C23.06 16.068 22.9178 16.0477 22.7757 16.0266C22.2986 15.9564 21.8244 15.8699 21.3483 15.7941C20.7727 15.7011 20.2222 15.7477 19.7015 16.0266C19.2741 16.2561 18.9283 16.6081 18.71 17.0355C18.4854 17.4911 18.4186 17.9872 18.3182 18.4768C18.2177 18.9664 18.0614 19.4932 18.1206 19.9958C18.248 21.0805 19.0208 21.962 20.1322 22.1591C21.1777 22.3451 22.229 22.4958 23.2831 22.624C27.4238 23.1218 31.6071 23.1813 35.7608 22.8017C36.099 22.7707 36.4368 22.7369 36.774 22.7003C36.8794 22.689 36.9862 22.7008 37.0862 22.7352C37.1861 22.7695 37.2771 22.8253 37.3523 22.8986C37.4275 22.9719 37.4854 23.0608 37.521 23.1587C37.5566 23.2567 37.5695 23.3612 37.5587 23.4647L37.4533 24.468C37.2415 26.4954 37.0297 28.5227 36.8179 30.5498C36.5967 32.6786 36.3741 34.8073 36.1502 36.9356C36.087 37.5352 36.0239 38.1345 35.9607 38.7338C35.9001 39.3236 35.8915 39.9324 35.7773 40.5155C35.5974 41.4321 34.9649 41.9954 34.042 42.2011C33.1965 42.3899 32.3328 42.4891 31.4657 42.4969C30.5045 42.5018 29.5437 42.4602 28.5825 42.4651C27.5564 42.4708 26.2995 42.3779 25.5073 41.6283C24.8114 40.9701 24.7153 39.9391 24.6205 39.048C24.4942 37.8681 24.3689 36.6882 24.2448 35.5083L23.5484 28.9486L23.0978 24.7042C23.0903 24.634 23.0827 24.5647 23.0756 24.494C23.0216 23.9877 22.6563 23.4921 22.0807 23.5177C21.588 23.539 21.028 23.95 21.0858 24.494L21.4198 27.6407L22.1105 34.1499C22.3073 35.9989 22.5036 37.8479 22.6994 39.6974C22.7373 40.0517 22.7729 40.4071 22.8127 40.7611C23.0291 42.6974 24.5357 43.7407 26.4013 44.0343C27.491 44.2065 28.6071 44.2418 29.7129 44.2595C31.1303 44.2817 32.562 44.3354 33.9563 44.0834C36.0223 43.7114 37.5724 42.3575 37.7936 40.2571C37.8569 39.6511 37.9201 39.0444 37.9831 38.4381C38.1931 36.4319 38.4028 34.4257 38.6124 32.4194L39.2972 25.8637L39.6115 22.8593C39.627 22.7103 39.6913 22.5703 39.7942 22.4598C39.8974 22.3494 40.0341 22.2744 40.1837 22.2461C40.7746 22.1331 41.3392 21.9402 41.7596 21.4989C42.4285 20.7964 42.5616 19.8805 42.3249 18.9571ZM20.1018 19.6052C20.1108 19.601 20.0943 19.6768 20.0872 19.7122C20.0857 19.6587 20.0886 19.6113 20.1018 19.6052ZM20.1592 20.0404C20.1639 20.0372 20.1781 20.0558 20.1928 20.0781C20.1705 20.0576 20.1563 20.0423 20.1587 20.0404H20.1592ZM20.2156 20.1134C20.2359 20.1473 20.2468 20.1687 20.2156 20.1134V20.1134ZM20.3288 20.2036H20.3316C20.3316 20.2069 20.3368 20.2101 20.3387 20.2134C20.3356 20.2098 20.3321 20.2065 20.3283 20.2036H20.3288ZM40.1563 20.0687C39.9442 20.2668 39.6241 20.3589 39.3083 20.4049C35.7646 20.921 32.1693 21.1823 28.5867 21.067C26.0228 20.981 23.4858 20.7015 20.9475 20.3496C20.6988 20.3152 20.4292 20.2706 20.2582 20.0906C19.936 19.7512 20.0943 19.0677 20.1781 18.6577C20.2549 18.282 20.4017 17.7813 20.857 17.7278C21.5676 17.646 22.3929 17.9403 23.096 18.0449C23.9424 18.1717 24.792 18.2732 25.6448 18.3494C29.2841 18.6749 32.9846 18.6242 36.6078 18.1481C37.2681 18.061 37.9263 17.9598 38.5819 17.8445C39.1663 17.7417 39.8136 17.5488 40.1668 18.1425C40.4088 18.547 40.4408 19.0882 40.4034 19.5452C40.3919 19.7444 40.3034 19.9317 40.1556 20.0687H40.1563Z" fill="#0D0C22"/>
<path fill-rule="evenodd" clip-rule="evenodd" d="M61.6506 29.7316C61.4438 30.1192 61.1593 30.4567 60.7972 30.7431C60.435 31.0297 60.0128 31.2631 59.5298 31.4428C59.0472 31.6229 58.5613 31.7437 58.0729 31.8053C57.5842 31.8672 57.1098 31.8618 56.6506 31.7884C56.1906 31.7155 55.7993 31.5666 55.4778 31.3416L55.8403 27.6492C56.1734 27.537 56.5927 27.4217 57.0987 27.3036C57.6043 27.1857 58.1244 27.1012 58.6591 27.0508C59.1939 27.0001 59.6992 27.006 60.1764 27.0677C60.6533 27.1295 61.0298 27.2783 61.3057 27.5145C61.4553 27.6492 61.5819 27.7954 61.6851 27.9528C61.7887 28.1102 61.8516 28.2732 61.875 28.4418C61.9322 28.9138 61.8577 29.3438 61.6506 29.7316ZM56.3917 21.8662C56.633 21.7201 56.9236 21.5907 57.2623 21.4782C57.6015 21.3661 57.9492 21.2872 58.3056 21.2423C58.6617 21.1976 59.0094 21.1916 59.3489 21.2254C59.6877 21.2592 59.9869 21.3518 60.2455 21.5035C60.5041 21.6553 60.6965 21.8746 60.8231 22.161C60.9493 22.4478 60.9838 22.8104 60.9263 23.2487C60.8806 23.5971 60.7393 23.8923 60.5041 24.1338C60.2685 24.3757 59.9808 24.5778 59.642 24.7409C59.3029 24.9041 58.9436 25.0332 58.5646 25.1284C58.1848 25.2243 57.8198 25.2946 57.4695 25.3393C57.1188 25.3845 56.8142 25.4127 56.5556 25.4236C56.2971 25.435 56.1273 25.4405 56.0468 25.4405L56.3917 21.8662ZM63.5128 27.3457C63.329 26.9526 63.0819 26.6069 62.7716 26.3087C62.4612 26.011 62.0929 25.7947 61.6678 25.6598C61.8516 25.5137 62.0329 25.2833 62.2112 24.9684C62.3893 24.654 62.5414 24.3109 62.668 23.94C62.7942 23.5689 62.8809 23.1954 62.9266 22.8187C62.9722 22.4423 62.955 22.1191 62.8751 21.8491C62.6791 21.1749 62.372 20.6466 61.9523 20.2643C61.5326 19.8823 61.0442 19.6181 60.4868 19.4718C59.929 19.3262 59.3144 19.2949 58.6419 19.3792C57.9694 19.4635 57.2825 19.6293 56.5815 19.8765C56.5815 19.8205 56.5873 19.7615 56.5988 19.6996C56.61 19.638 56.6157 19.5732 56.6157 19.5056C56.6157 19.3371 56.5298 19.1912 56.3571 19.0673C56.1849 18.9437 55.9867 18.8708 55.7627 18.8481C55.5382 18.8259 55.3199 18.8733 55.107 18.9914C54.8945 19.1095 54.7478 19.3262 54.6676 19.6404C54.5755 20.6521 54.4834 21.7032 54.3917 22.7933C54.2997 23.8837 54.2018 24.9853 54.0986 26.0983C53.9951 27.211 53.8915 28.3153 53.7883 29.4112C53.6847 30.5072 53.5811 31.5608 53.4779 32.5724C53.5124 32.8759 53.5984 33.1121 53.7365 33.2806C53.8742 33.4494 54.0353 33.5506 54.2191 33.5842C54.4029 33.6179 54.5956 33.5867 54.7967 33.4913C54.9977 33.3961 55.1732 33.2299 55.3228 32.994C55.7824 33.2413 56.2999 33.4015 56.8746 33.4746C57.4493 33.5476 58.0323 33.5476 58.625 33.4746C59.2166 33.4015 59.7999 33.2639 60.3746 33.0614C60.9493 32.8592 61.4726 32.6062 61.9437 32.3029C62.4152 31.9993 62.8115 31.6535 63.1337 31.2659C63.4552 30.8779 63.6681 30.4592 63.7713 30.0098C63.8749 29.5489 63.9037 29.0882 63.8576 28.6272C63.8116 28.1665 63.6965 27.7395 63.5128 27.3457Z" fill="#0D0C23"/>
<path fill-rule="evenodd" clip-rule="evenodd" d="M80.3346 36.2479C80.2716 36.6188 80.1821 37.0095 80.0673 37.42C79.9523 37.8298 79.8174 38.2039 79.6624 38.5413C79.507 38.8784 79.3348 39.1505 79.1452 39.3587C78.9554 39.5666 78.7511 39.6538 78.5328 39.6202C78.3605 39.5973 78.2512 39.4907 78.2055 39.2998C78.1591 39.1085 78.1591 38.8724 78.2055 38.5918C78.2512 38.3105 78.34 37.9928 78.4724 37.6388C78.6047 37.2848 78.7658 36.9333 78.9554 36.5853C79.1452 36.2366 79.3607 35.9024 79.602 35.5819C79.8433 35.2618 80.0961 34.9947 80.3604 34.7812C80.418 34.8486 80.4439 35.0171 80.4381 35.2871C80.432 35.5568 80.3978 35.8773 80.3346 36.2479ZM86.18 28.9306C86.0247 28.762 85.8351 28.6666 85.6107 28.644C85.3867 28.6215 85.1594 28.7451 84.9299 29.0149C84.7803 29.2846 84.5904 29.5432 84.3606 29.7905C84.1308 30.038 83.8924 30.2626 83.6453 30.4649C83.3979 30.667 83.1623 30.8416 82.9383 30.9875C82.7142 31.1338 82.5387 31.2405 82.4125 31.3079C82.3665 30.9483 82.3402 30.5605 82.3348 30.1445C82.3287 29.7286 82.3377 29.3073 82.3607 28.8801C82.3949 28.2731 82.4668 27.6606 82.5761 27.0423C82.6855 26.4241 82.8434 25.8171 83.0505 25.2211C83.0505 24.9067 82.9753 24.6509 82.8261 24.4541C82.6765 24.2575 82.4956 24.1337 82.283 24.0832C82.0701 24.0327 81.8522 24.0607 81.6278 24.1674C81.4037 24.2744 81.2113 24.4684 81.0502 24.7491C80.9125 25.1202 80.7542 25.536 80.5762 25.9967C80.3978 26.4577 80.1968 26.927 79.9728 27.4046C79.7484 27.8827 79.4984 28.3462 79.2226 28.7956C78.9467 29.2455 78.645 29.6446 78.3174 29.9928C77.9897 30.3413 77.6334 30.614 77.2485 30.8106C76.863 31.0073 76.4469 31.0944 75.9985 31.072C75.7913 31.0157 75.6417 30.864 75.55 30.6166C75.4579 30.3695 75.4033 30.0602 75.3864 29.6893C75.3691 29.3184 75.3864 28.9109 75.4378 28.4668C75.4896 28.023 75.5586 27.5817 75.6449 27.1434C75.7309 26.705 75.8258 26.2891 75.929 25.8958C76.0326 25.5024 76.1301 25.1706 76.2222 24.9009C76.3603 24.5751 76.3603 24.3022 76.2222 24.0832C76.0844 23.8639 75.8949 23.718 75.6536 23.6447C75.4123 23.5718 75.1591 23.5747 74.8947 23.6532C74.6304 23.732 74.4405 23.9061 74.3258 24.1758C74.1302 24.637 73.9518 25.1537 73.791 25.727C73.6303 26.3003 73.5008 26.8934 73.4033 27.5058C73.3055 28.1186 73.2505 28.7257 73.2394 29.327C73.2386 29.3661 73.2404 29.4033 73.2404 29.4422C72.9898 30.0957 72.751 30.5896 72.524 30.9201C72.2309 31.3474 71.9001 31.5329 71.5325 31.4764C71.3711 31.4091 71.2653 31.2518 71.2135 31.0043C71.1614 30.7573 71.1445 30.4538 71.1614 30.0938C71.179 29.7344 71.2222 29.327 71.2909 28.8716C71.3603 28.4164 71.4459 27.9443 71.5494 27.4553C71.653 26.9661 71.7623 26.4748 71.8771 25.98C71.9921 25.4855 72.0954 25.019 72.1878 24.5805C72.1763 24.1871 72.0583 23.8866 71.8339 23.6785C71.6102 23.4708 71.2966 23.3893 70.8946 23.434C70.6187 23.5465 70.4144 23.6928 70.2825 23.8725C70.1501 24.0521 70.0437 24.2828 69.9635 24.5636C69.9171 24.7099 69.8484 25.0021 69.7563 25.4406C69.6642 25.8786 69.5466 26.382 69.4028 26.9494C69.2593 27.5174 69.0896 28.1101 68.8943 28.7282C68.699 29.3464 68.4803 29.906 68.2394 30.4059C67.9977 30.906 67.7334 31.3079 67.446 31.6114C67.1587 31.9147 66.8483 32.0386 66.5149 31.9823C66.3308 31.9485 66.2132 31.7631 66.1614 31.426C66.1096 31.0886 66.1014 30.673 66.1355 30.1783C66.1701 29.6837 66.2391 29.1413 66.3423 28.5513C66.4459 27.9612 66.552 27.402 66.6613 26.8735C66.7706 26.3454 66.8713 25.8786 66.9634 25.4742C67.0551 25.0695 67.1184 24.7997 67.1529 24.665C67.1529 24.339 67.0778 24.0778 66.9289 23.8808C66.7793 23.6844 66.5984 23.5606 66.3855 23.5099C66.1726 23.4594 65.9543 23.4875 65.7306 23.5942C65.5062 23.7011 65.3138 23.8952 65.1527 24.1758C65.0951 24.4793 65.0203 24.8308 64.9286 25.2297C64.8365 25.6286 64.7477 26.0389 64.6614 26.4605C64.5751 26.8821 64.4945 27.2951 64.4201 27.6998C64.3453 28.1045 64.2906 28.4585 64.2561 28.762C64.2331 28.998 64.2072 29.2876 64.1788 29.6303C64.1496 29.9734 64.1353 30.3357 64.1353 30.7177C64.1353 31.1002 64.164 31.4794 64.2219 31.8559C64.2791 32.2326 64.3827 32.5782 64.5319 32.8927C64.6812 33.2075 64.8912 33.4659 65.1616 33.6683C65.4314 33.8706 65.7734 33.9829 66.1873 34.0056C66.6124 34.0278 66.9832 33.9972 67.2997 33.9128C67.6154 33.8285 67.9028 33.6963 68.1617 33.5164C68.4203 33.3369 68.6558 33.1233 68.8687 32.8758C69.0809 32.6287 69.2909 32.359 69.4977 32.0666C69.6934 32.494 69.9462 32.8253 70.2566 33.0614C70.5669 33.2974 70.8946 33.4381 71.2394 33.4828C71.584 33.5275 71.935 33.4803 72.2914 33.3395C72.6474 33.1992 72.9693 32.9603 73.2566 32.6229C73.4461 32.4161 73.6245 32.181 73.7921 31.9211C73.8633 32.0428 73.9388 32.1603 74.0241 32.2687C74.3057 32.6287 74.688 32.8758 75.1709 33.0107C75.6881 33.1457 76.1934 33.1684 76.6879 33.0783C77.182 32.9885 77.6535 32.8253 78.1016 32.5894C78.5501 32.3532 78.9665 32.0696 79.352 31.7378C79.7368 31.4063 80.0731 31.0608 80.3604 30.7008C80.3489 30.9594 80.3432 31.2041 80.3432 31.4343C80.3432 31.6649 80.3374 31.9147 80.3263 32.1846C79.7512 32.5782 79.2082 33.0503 78.6968 33.6009C78.185 34.1515 77.7366 34.7388 77.3518 35.3627C76.9666 35.9864 76.6649 36.6188 76.4469 37.2594C76.2283 37.9004 76.1218 38.4989 76.1276 39.0555C76.1333 39.6118 76.2682 40.0978 76.5329 40.5135C76.7968 40.9297 77.228 41.2272 77.8258 41.4072C78.4468 41.5985 78.9924 41.6038 79.4642 41.4241C79.9354 41.2441 80.3461 40.9462 80.6967 40.5305C81.0473 40.1147 81.3347 39.6118 81.5591 39.0216C81.7832 38.4315 81.9612 37.816 82.0935 37.1754C82.2255 36.5348 82.3089 35.9048 82.3435 35.2871C82.378 34.6687 82.378 34.1177 82.3435 33.6345C83.3321 33.23 84.1423 32.7185 84.7746 32.1002C85.4068 31.4824 85.9297 30.8302 86.3437 30.1445C86.4699 29.9759 86.513 29.7736 86.4731 29.5376C86.4325 29.3015 86.335 29.0991 86.18 28.9306Z" fill="#0D0C23"/>
<path fill-rule="evenodd" clip-rule="evenodd" d="M107.931 27.8517C107.966 27.5933 108.017 27.3206 108.086 27.034C108.155 26.7474 108.241 26.4691 108.345 26.1994C108.448 25.9296 108.569 25.6965 108.707 25.4997C108.845 25.3031 108.992 25.1626 109.147 25.0781C109.302 24.994 109.459 25.0024 109.621 25.1033C109.793 25.2047 109.899 25.4182 109.94 25.744C109.98 26.0704 109.94 26.4186 109.819 26.7895C109.698 27.1606 109.483 27.5088 109.172 27.8348C108.862 28.161 108.442 28.3743 107.914 28.4755C107.891 28.3185 107.896 28.1104 107.931 27.8517ZM113.905 28.5428C113.716 28.487 113.535 28.4813 113.362 28.5262C113.19 28.5711 113.081 28.6891 113.035 28.8804C112.943 29.2399 112.796 29.6081 112.595 29.9845C112.394 30.3612 112.147 30.718 111.854 31.0553C111.561 31.3924 111.23 31.6904 110.862 31.9488C110.494 32.2074 110.109 32.3928 109.707 32.5051C109.304 32.629 108.971 32.6429 108.707 32.5473C108.442 32.4521 108.233 32.2889 108.078 32.0585C107.922 31.8282 107.81 31.5499 107.741 31.2239C107.672 30.8979 107.632 30.5608 107.621 30.2121C108.276 30.2573 108.859 30.1422 109.371 29.8665C109.882 29.5914 110.316 29.2258 110.672 28.7706C111.029 28.3155 111.299 27.804 111.483 27.2363C111.667 26.6689 111.77 26.104 111.793 25.5418C111.805 25.0135 111.724 24.5669 111.552 24.2015C111.38 23.8364 111.147 23.5521 110.853 23.35C110.561 23.1476 110.224 23.0296 109.845 22.996C109.466 22.9622 109.08 23.0129 108.689 23.1476C108.218 23.3051 107.819 23.5607 107.491 23.9149C107.164 24.2689 106.891 24.6794 106.672 25.1457C106.454 25.6122 106.281 26.1151 106.155 26.6545C106.029 27.1942 105.937 27.7253 105.879 28.2481C105.828 28.7172 105.8 29.1657 105.79 29.5987C105.765 29.6536 105.742 29.7065 105.715 29.7653C105.537 30.1646 105.33 30.5552 105.095 30.9372C104.859 31.3195 104.597 31.6399 104.31 31.8983C104.023 32.1569 103.724 32.2468 103.414 32.168C103.23 32.1233 103.129 31.915 103.112 31.5443C103.095 31.1732 103.114 30.7124 103.172 30.1616C103.23 29.6111 103.296 29.0149 103.371 28.3743C103.445 27.7337 103.482 27.1213 103.482 26.5367C103.482 26.0308 103.385 25.5448 103.189 25.0781C102.994 24.612 102.726 24.224 102.388 23.9149C102.049 23.6056 101.655 23.4005 101.207 23.2995C100.758 23.1981 100.276 23.2657 99.7584 23.5016C99.2408 23.7378 98.8298 24.0693 98.5255 24.4965C98.2206 24.9239 97.9418 25.3733 97.689 25.8454C97.597 25.4856 97.4621 25.1515 97.2837 24.8422C97.1057 24.5331 96.8874 24.2633 96.6288 24.0328C96.3699 23.8026 96.0793 23.6227 95.7582 23.4933C95.4363 23.3643 95.0968 23.2995 94.7404 23.2995C94.3959 23.2995 94.0769 23.3643 93.7838 23.4933C93.4907 23.6227 93.2235 23.7883 92.9818 23.9906C92.7405 24.1932 92.5222 24.4206 92.3265 24.6736C92.1313 24.9264 91.9586 25.1767 91.8094 25.4238C91.786 25.1316 91.7605 24.876 91.7321 24.6565C91.7029 24.4375 91.6511 24.252 91.5767 24.1003C91.5019 23.9485 91.3958 23.8334 91.2577 23.7547C91.1196 23.6762 90.9243 23.6366 90.6715 23.6366C90.5449 23.6366 90.4183 23.6619 90.2921 23.7123C90.1655 23.763 90.0533 23.8334 89.9558 23.9232C89.858 24.0135 89.7836 24.1228 89.7318 24.252C89.68 24.3812 89.666 24.5303 89.6886 24.6988C89.7001 24.8227 89.7318 24.9714 89.7836 25.1457C89.835 25.32 89.8839 25.5478 89.9299 25.8284C89.976 26.1095 90.0134 26.4496 90.0421 26.8486C90.0709 27.2477 90.0792 27.7367 90.068 28.3155C90.0562 28.8945 90.0134 29.5715 89.9386 30.3471C89.8638 31.1227 89.7458 32.0219 89.5851 33.0446C89.562 33.2807 89.6541 33.472 89.8613 33.6181C90.068 33.7639 90.3036 33.8482 90.5679 33.8709C90.8323 33.8934 91.0826 33.8482 91.3181 33.7361C91.5537 33.6234 91.6889 33.4268 91.7231 33.146C91.7576 32.6177 91.8238 32.0557 91.9216 31.4598C92.0191 30.8643 92.1399 30.2742 92.2837 29.6896C92.4272 29.1052 92.5909 28.5488 92.775 28.0203C92.9588 27.492 93.163 27.0257 93.3871 26.6209C93.6115 26.2163 93.8442 25.8932 94.0855 25.6516C94.3268 25.4099 94.5796 25.289 94.8443 25.289C95.1658 25.289 95.4158 25.4321 95.5942 25.7187C95.7722 26.0056 95.8984 26.3739 95.9736 26.8231C96.048 27.2729 96.0825 27.7649 96.0772 28.2986C96.071 28.8325 96.048 29.3467 96.0081 29.8412C95.9678 30.336 95.9218 30.777 95.87 31.1648C95.8182 31.5527 95.7808 31.8198 95.7582 31.9657C95.7582 32.2243 95.8585 32.4292 96.0595 32.5811C96.2606 32.7327 96.4846 32.8228 96.7321 32.8508C96.9795 32.879 97.2118 32.8339 97.4305 32.7158C97.6488 32.5978 97.7753 32.3986 97.8099 32.1173C97.9246 31.3081 98.0828 30.4962 98.2839 29.6812C98.4849 28.8663 98.7151 28.1358 98.9736 27.4894C99.2322 26.843 99.5196 26.3147 99.8357 25.9044C100.152 25.4944 100.488 25.289 100.844 25.289C101.028 25.289 101.169 25.4128 101.267 25.6599C101.364 25.9072 101.413 26.2443 101.413 26.6714C101.413 26.9863 101.387 27.3095 101.336 27.641C101.284 27.9726 101.224 28.3155 101.155 28.6695C101.086 29.0237 101.025 29.3861 100.974 29.757C100.922 30.1281 100.896 30.5156 100.896 30.9204C100.896 31.2014 100.925 31.5274 100.983 31.8983C101.04 32.269 101.149 32.6207 101.31 32.952C101.471 33.2837 101.692 33.5646 101.974 33.795C102.256 34.0253 102.615 34.1406 103.051 34.1406C103.707 34.1406 104.287 34.0029 104.793 33.7276C105.299 33.4523 105.733 33.0927 106.095 32.6487C106.113 32.6254 106.131 32.6005 106.149 32.5775C106.177 32.6431 106.201 32.7126 106.232 32.7751C106.48 33.2696 106.816 33.6516 107.241 33.9216C107.666 34.1913 108.167 34.3402 108.742 34.3684C109.316 34.3962 109.942 34.2923 110.621 34.0564C111.126 33.8765 111.566 33.6516 111.94 33.3819C112.313 33.1122 112.649 32.7834 112.948 32.3956C113.247 32.0078 113.52 31.561 113.768 31.0553C114.015 30.5492 114.265 29.9706 114.517 29.3184C114.563 29.139 114.52 28.9788 114.388 28.838C114.256 28.6977 114.095 28.5993 113.905 28.5428Z" fill="#0D0C23"/>
<path fill-rule="evenodd" clip-rule="evenodd" d="M123.276 26.6624C123.219 26.9941 123.141 27.3597 123.043 27.7584C122.946 28.1575 122.822 28.5706 122.673 28.9977C122.523 29.4249 122.339 29.8099 122.121 30.1526C121.903 30.4957 121.652 30.768 121.371 30.9703C121.089 31.1727 120.765 31.257 120.397 31.2231C120.213 31.2009 120.072 31.0773 119.974 30.8522C119.877 30.6277 119.825 30.3408 119.819 29.9924C119.813 29.6441 119.845 29.2619 119.914 28.8459C119.983 28.4303 120.089 28.0226 120.233 27.6234C120.377 27.2247 120.552 26.8564 120.759 26.519C120.966 26.1819 121.204 25.9206 121.474 25.7351C121.744 25.5497 122.041 25.4628 122.362 25.4737C122.684 25.4851 123.029 25.6423 123.397 25.9458C123.374 26.0921 123.334 26.331 123.276 26.6624ZM129.406 27.9522C129.227 27.8623 129.044 27.8429 128.854 27.8934C128.665 27.9438 128.529 28.1154 128.449 28.4076C128.403 28.7225 128.3 29.0931 128.139 29.5203C127.978 29.9474 127.779 30.3524 127.544 30.7342C127.308 31.1164 127.038 31.4341 126.733 31.6869C126.429 31.9399 126.104 32.0552 125.759 32.0323C125.472 32.0101 125.27 31.8668 125.156 31.6026C125.041 31.3385 124.98 31.0071 124.975 30.6078C124.969 30.209 125.009 29.7594 125.095 29.2591C125.182 28.759 125.285 28.2617 125.406 27.7667C125.526 27.2724 125.65 26.7973 125.777 26.3421C125.903 25.887 126.006 25.502 126.087 25.1873C126.179 24.9062 126.15 24.6675 126.001 24.4705C125.851 24.2742 125.664 24.1334 125.44 24.0492C125.216 23.9649 124.989 23.9424 124.759 23.9817C124.529 24.0211 124.38 24.142 124.311 24.3441C123.633 23.7709 122.98 23.4618 122.354 23.4169C121.727 23.3719 121.15 23.5069 120.621 23.8215C120.092 24.1362 119.624 24.5914 119.216 25.1873C118.808 25.7832 118.477 26.4322 118.224 27.1347C117.971 27.8371 117.813 28.5539 117.75 29.2844C117.687 30.015 117.736 30.6811 117.897 31.2824C118.058 31.8837 118.342 32.3756 118.75 32.7575C119.158 33.1397 119.713 33.3309 120.414 33.3309C120.725 33.3309 121.023 33.2691 121.311 33.1455C121.598 33.0216 121.862 32.8755 122.104 32.707C122.345 32.5384 122.558 32.3613 122.742 32.1759C122.926 31.9904 123.069 31.836 123.173 31.7121C123.253 32.1168 123.386 32.4599 123.57 32.7408C123.753 33.0216 123.963 33.2524 124.199 33.4319C124.434 33.6116 124.682 33.7437 124.94 33.8282C125.199 33.9125 125.449 33.9547 125.69 33.9547C126.231 33.9547 126.736 33.7748 127.208 33.415C127.679 33.0557 128.101 32.6142 128.475 32.0916C128.848 31.5688 129.156 31.0182 129.397 30.4392C129.639 29.8604 129.8 29.3462 129.88 28.8963C129.961 28.7278 129.946 28.5509 129.837 28.3655C129.728 28.18 129.584 28.0424 129.406 27.9522Z" fill="#0D0C23"/>
<path fill-rule="evenodd" clip-rule="evenodd" d="M160.442 37.2603C160.345 37.6422 160.193 37.9659 159.985 38.2299C159.779 38.4939 159.52 38.6315 159.21 38.6432C159.014 38.6541 158.865 38.5528 158.761 38.3396C158.658 38.1257 158.586 37.8505 158.546 37.5134C158.505 37.176 158.488 36.7994 158.494 36.3836C158.5 35.9679 158.517 35.5574 158.546 35.1528C158.574 34.7483 158.609 34.3714 158.649 34.0232C158.689 33.6745 158.721 33.4052 158.744 33.214C159.135 33.2589 159.46 33.4245 159.718 33.7113C159.977 33.9979 160.175 34.3378 160.313 34.7314C160.451 35.1248 160.531 35.5493 160.555 36.0042C160.577 36.4595 160.54 36.8781 160.442 37.2603ZM154.201 37.2603C154.103 37.6422 153.951 37.9659 153.744 38.2299C153.537 38.4939 153.278 38.6315 152.968 38.6432C152.773 38.6541 152.623 38.5528 152.52 38.3396C152.416 38.1257 152.344 37.8505 152.304 37.5134C152.264 37.176 152.246 36.7994 152.253 36.3836C152.258 35.9679 152.275 35.5574 152.304 35.1528C152.333 34.7483 152.367 34.3714 152.408 34.0232C152.448 33.6745 152.479 33.4052 152.502 33.214C152.893 33.2589 153.218 33.4245 153.476 33.7113C153.735 33.9979 153.933 34.3378 154.072 34.7314C154.21 35.1248 154.29 35.5493 154.313 36.0042C154.336 36.4595 154.298 36.8781 154.201 37.2603ZM147.796 27.6838C147.784 27.9533 147.758 28.1923 147.718 28.4002C147.677 28.6085 147.623 28.7403 147.554 28.7965C147.427 28.7289 147.272 28.555 147.088 28.2737C146.904 27.9929 146.761 27.6751 146.657 27.321C146.554 26.967 146.522 26.6188 146.562 26.2757C146.602 25.933 146.784 25.6663 147.105 25.4749C147.232 25.4075 147.341 25.4327 147.433 25.5508C147.525 25.6689 147.6 25.8402 147.657 26.065C147.715 26.29 147.755 26.5484 147.778 26.8406C147.801 27.133 147.807 27.4139 147.796 27.6838ZM146.269 31.0474C146.091 31.2326 145.892 31.3928 145.674 31.5278C145.456 31.6628 145.232 31.7639 145.002 31.8314C144.772 31.8989 144.565 31.9156 144.381 31.8818C143.864 31.7809 143.467 31.5614 143.192 31.2243C142.916 30.8872 142.74 30.491 142.666 30.0359C142.591 29.5805 142.599 29.0943 142.692 28.5773C142.783 28.0603 142.938 27.5799 143.157 27.1358C143.375 26.6917 143.64 26.3095 143.95 25.9893C144.26 25.6689 144.6 25.4695 144.967 25.3906C144.829 25.9638 144.784 26.557 144.829 27.1694C144.875 27.782 145.025 28.358 145.278 28.8975C145.439 29.2239 145.631 29.5214 145.855 29.7911C146.08 30.0611 146.353 30.2915 146.675 30.4825C146.583 30.6737 146.447 30.8619 146.269 31.0474ZM165.348 27.8524C165.382 27.594 165.434 27.321 165.503 27.0344C165.572 26.748 165.658 26.4697 165.761 26.2C165.865 25.93 165.986 25.6969 166.124 25.5003C166.262 25.3037 166.408 25.163 166.563 25.0787C166.719 24.9944 166.877 25.0028 167.037 25.1039C167.21 25.2053 167.316 25.4188 167.356 25.7446C167.397 26.0708 167.356 26.419 167.236 26.7901C167.115 27.161 166.9 27.5095 166.589 27.8353C166.279 28.1617 165.859 28.3749 165.331 28.4761C165.308 28.3189 165.313 28.111 165.348 27.8524ZM172.297 27.8524C172.331 27.594 172.383 27.321 172.452 27.0344C172.521 26.748 172.607 26.4697 172.711 26.2C172.814 25.93 172.934 25.6969 173.072 25.5003C173.21 25.3037 173.357 25.163 173.512 25.0787C173.668 24.9944 173.825 25.0028 173.986 25.1039C174.159 25.2053 174.265 25.4188 174.305 25.7446C174.346 26.0708 174.305 26.419 174.185 26.7901C174.064 27.161 173.848 27.5095 173.538 27.8353C173.228 28.1617 172.808 28.3749 172.279 28.4761C172.256 28.3189 172.262 28.111 172.297 27.8524ZM178.754 28.8387C178.622 28.6983 178.461 28.5999 178.271 28.5435C178.081 28.4874 177.9 28.4819 177.728 28.5268C177.556 28.5717 177.446 28.6898 177.4 28.8808C177.308 29.2406 177.162 29.6087 176.961 29.9849C176.759 30.3619 176.512 30.7186 176.219 31.0557C175.926 31.3928 175.596 31.691 175.228 31.9494C174.86 32.208 174.475 32.3935 174.073 32.5055C173.67 32.6296 173.337 32.6435 173.072 32.5479C172.808 32.4525 172.598 32.2895 172.443 32.0591C172.288 31.8286 172.176 31.5505 172.107 31.2243C172.038 30.8985 171.997 30.5614 171.986 30.2128C172.642 30.2579 173.225 30.1428 173.736 29.8671C174.248 29.5918 174.682 29.2262 175.039 28.7711C175.395 28.3161 175.665 27.8047 175.848 27.237C176.032 26.6693 176.136 26.1046 176.159 25.5424C176.17 25.0141 176.09 24.5673 175.917 24.2019C175.745 23.8368 175.513 23.5527 175.219 23.3506C174.926 23.1481 174.59 23.0302 174.21 22.9964C173.831 22.9626 173.446 23.0135 173.055 23.1481C172.584 23.3057 172.184 23.5613 171.857 23.9153C171.53 24.2695 171.256 24.68 171.038 25.1461C170.819 25.6128 170.647 26.1155 170.52 26.6552C170.394 27.1946 170.302 27.7259 170.245 28.2485C170.189 28.7557 170.159 29.241 170.152 29.7056C170.108 29.7982 170.062 29.8913 170.012 29.9849C169.811 30.3619 169.563 30.7186 169.27 31.0557C168.978 31.3928 168.647 31.691 168.279 31.9494C167.911 32.208 167.526 32.3935 167.124 32.5055C166.721 32.6296 166.388 32.6435 166.124 32.5479C165.859 32.4525 165.65 32.2895 165.495 32.0591C165.34 31.8286 165.227 31.5505 165.158 31.2243C165.089 30.8985 165.049 30.5614 165.037 30.2128C165.693 30.2579 166.276 30.1428 166.788 29.8671C167.299 29.5918 167.733 29.2262 168.089 28.7711C168.446 28.3161 168.716 27.8047 168.9 27.237C169.083 26.6693 169.187 26.1046 169.21 25.5424C169.221 25.0141 169.141 24.5673 168.969 24.2019C168.796 23.8368 168.563 23.5527 168.27 23.3506C167.977 23.1481 167.641 23.0302 167.262 22.9964C166.882 22.9626 166.497 23.0135 166.107 23.1481C165.635 23.3057 165.236 23.5613 164.908 23.9153C164.581 24.2695 164.307 24.68 164.089 25.1461C163.871 25.6128 163.699 26.1155 163.572 26.6552C163.445 27.1946 163.353 27.7259 163.296 28.2485C163.263 28.5433 163.242 28.829 163.226 29.1097C163.115 29.2021 163.006 29.2951 162.891 29.3865C162.495 29.7013 162.077 29.9849 161.641 30.238C161.204 30.491 160.75 30.6989 160.279 30.8619C159.807 31.0249 159.324 31.1233 158.83 31.1569L159.899 19.9616C159.968 19.7254 159.934 19.5177 159.796 19.3378C159.658 19.1579 159.48 19.0343 159.261 18.9669C159.043 18.8993 158.81 18.9051 158.563 18.9836C158.316 19.0625 158.112 19.2424 157.951 19.5231C157.87 19.9504 157.787 20.5348 157.701 21.2766C157.615 22.0184 157.528 22.8278 157.442 23.7046C157.356 24.5814 157.27 25.4862 157.184 26.419C157.097 27.3523 157.023 28.2233 156.959 29.0325C156.957 29.0684 156.954 29.1009 156.951 29.1364C156.851 29.2198 156.753 29.3039 156.649 29.3865C156.253 29.7013 155.836 29.9849 155.399 30.238C154.962 30.491 154.508 30.6989 154.037 30.8619C153.566 31.0249 153.083 31.1233 152.588 31.1569L153.658 19.9616C153.727 19.7254 153.692 19.5177 153.554 19.3378C153.416 19.1579 153.238 19.0343 153.02 18.9669C152.801 18.8993 152.568 18.9051 152.321 18.9836C152.074 19.0625 151.87 19.2424 151.709 19.5231C151.629 19.9504 151.545 20.5348 151.46 21.2766C151.373 22.0184 151.287 22.8278 151.201 23.7046C151.114 24.5814 151.028 25.4862 150.942 26.419C150.856 27.3523 150.781 28.2233 150.718 29.0325C150.717 29.0487 150.715 29.0635 150.714 29.0797C150.533 29.1616 150.337 29.2335 150.123 29.2939C149.904 29.3559 149.657 29.3924 149.382 29.4036C149.428 29.201 149.465 28.9762 149.493 28.7289C149.522 28.4819 149.546 28.2233 149.563 27.9533C149.58 27.6838 149.585 27.4139 149.58 27.1441C149.574 26.8742 149.56 26.6271 149.537 26.4021C149.479 25.9191 149.373 25.4609 149.218 25.028C149.063 24.5955 148.853 24.2332 148.589 23.9405C148.324 23.6483 147.994 23.4516 147.597 23.3506C147.2 23.2494 146.738 23.283 146.209 23.4516C145.427 23.3506 144.723 23.421 144.097 23.6625C143.47 23.9044 142.927 24.2554 142.467 24.7161C142.008 25.1773 141.631 25.7193 141.338 26.3433C141.045 26.967 140.849 27.6079 140.752 28.2652C140.71 28.5439 140.69 28.8213 140.684 29.0981C140.506 29.4545 140.311 29.7659 140.097 30.0273C139.792 30.3982 139.476 30.7017 139.148 30.9377C138.821 31.1738 138.496 31.3537 138.174 31.4773C137.852 31.6012 137.565 31.6855 137.312 31.7302C137.013 31.7864 136.726 31.7922 136.45 31.7471C136.174 31.7024 135.921 31.5729 135.691 31.3593C135.507 31.202 135.366 30.949 135.269 30.6005C135.171 30.2521 135.114 29.8562 135.097 29.4119C135.079 28.9678 135.097 28.5041 135.148 28.0209C135.2 27.5377 135.289 27.0795 135.415 26.6468C135.542 26.2141 135.702 25.8263 135.898 25.4832C136.093 25.1408 136.323 24.896 136.588 24.7499C136.737 24.7726 136.829 24.8595 136.864 25.0111C136.898 25.163 136.907 25.3429 136.889 25.5508C136.872 25.7589 136.847 25.9724 136.812 26.1914C136.778 26.4107 136.76 26.5936 136.76 26.7394C136.818 27.043 136.93 27.2791 137.096 27.4477C137.263 27.6162 137.45 27.7148 137.657 27.7426C137.864 27.7709 138.068 27.7232 138.269 27.5993C138.47 27.4759 138.634 27.2791 138.761 27.0092C138.772 27.0205 138.789 27.0261 138.812 27.0261L139.054 24.8849C139.122 24.5925 139.076 24.3341 138.916 24.1093C138.754 23.8845 138.542 23.7551 138.278 23.7215C137.944 23.2494 137.493 22.9994 136.924 22.9712C136.355 22.9431 135.772 23.1258 135.174 23.5192C134.806 23.778 134.481 24.1346 134.2 24.5897C133.918 25.0451 133.688 25.5508 133.51 26.1071C133.331 26.6635 133.205 27.2511 133.131 27.8693C133.056 28.4874 133.042 29.0889 133.087 29.6731C133.133 30.2579 133.24 30.8087 133.407 31.3255C133.573 31.8427 133.806 32.2754 134.105 32.6236C134.358 32.9272 134.645 33.1494 134.967 33.2899C135.289 33.4305 135.625 33.5173 135.976 33.5511C136.326 33.5847 136.674 33.5706 137.019 33.509C137.364 33.4474 137.691 33.3603 138.002 33.2476C138.404 33.1017 138.818 32.916 139.243 32.6912C139.668 32.4666 140.076 32.1967 140.467 31.8818C140.673 31.7163 140.871 31.5357 141.062 31.3421C141.149 31.5535 141.247 31.758 141.364 31.9494C141.674 32.4551 142.094 32.8655 142.623 33.1802C143.151 33.4948 143.801 33.6463 144.571 33.6354C145.399 33.6241 146.163 33.4191 146.864 33.02C147.565 32.6213 148.14 32.0335 148.589 31.2581C149.26 31.2581 149.921 31.1499 150.57 30.9349C150.565 31.0029 150.559 31.0745 150.554 31.1402C150.508 31.736 150.485 32.1404 150.485 32.3541C150.474 32.725 150.448 33.183 150.408 33.728C150.367 34.2732 150.341 34.8465 150.33 35.4476C150.319 36.049 150.341 36.6561 150.399 37.2688C150.457 37.8812 150.577 38.4377 150.761 38.9382C150.945 39.438 151.206 39.8626 151.545 40.2113C151.884 40.5593 152.33 40.7675 152.882 40.8349C153.468 40.9133 153.974 40.8123 154.399 40.5314C154.824 40.2501 155.169 39.8654 155.434 39.3766C155.698 38.8874 155.884 38.3227 155.994 37.6821C156.103 37.0412 156.135 36.3977 156.089 35.7512C156.043 35.1049 155.922 34.4953 155.727 33.9222C155.531 33.3488 155.261 32.8767 154.916 32.5055C155.123 32.4497 155.37 32.343 155.658 32.1854C155.945 32.0281 156.241 31.851 156.546 31.6542C156.621 31.6059 156.694 31.555 156.769 31.5053C156.741 31.9036 156.727 32.1877 156.727 32.3541C156.716 32.725 156.69 33.183 156.649 33.728C156.609 34.2732 156.583 34.8465 156.572 35.4476C156.56 36.049 156.583 36.6561 156.641 37.2688C156.698 37.8812 156.819 38.4377 157.003 38.9382C157.186 39.438 157.448 39.8626 157.787 40.2113C158.126 40.5593 158.572 40.7675 159.124 40.8349C159.71 40.9133 160.215 40.8123 160.641 40.5314C161.066 40.2501 161.411 39.8654 161.675 39.3766C161.94 38.8874 162.126 38.3227 162.236 37.6821C162.345 37.0412 162.376 36.3977 162.331 35.7512C162.284 35.1049 162.164 34.4953 161.969 33.9222C161.773 33.3488 161.503 32.8767 161.158 32.5055C161.365 32.4497 161.612 32.343 161.899 32.1854C162.187 32.0281 162.483 31.851 162.788 31.6542C162.946 31.552 163.103 31.4465 163.26 31.3381C163.319 31.8878 163.446 32.3699 163.649 32.7755C163.897 33.2703 164.233 33.6523 164.658 33.9222C165.083 34.1917 165.583 34.3408 166.158 34.3688C166.733 34.3966 167.359 34.2929 168.038 34.0568C168.544 33.8771 168.983 33.6523 169.357 33.3825C169.73 33.1126 170.066 32.7838 170.365 32.3962C170.383 32.3738 170.399 32.3494 170.416 32.3267C170.469 32.4842 170.528 32.6354 170.598 32.7755C170.846 33.2703 171.182 33.6523 171.607 33.9222C172.032 34.1917 172.532 34.3408 173.107 34.3688C173.682 34.3966 174.308 34.2929 174.986 34.0568C175.492 33.8771 175.932 33.6523 176.305 33.3825C176.679 33.1126 177.015 32.7838 177.314 32.3962C177.613 32.0083 177.886 31.5614 178.133 31.0557C178.38 30.5499 178.63 29.9713 178.883 29.3191C178.929 29.1394 178.886 28.9792 178.754 28.8387Z" fill="#0D0C23"/>
</g>
<defs>
<clipPath id="clip0_258_1699">
<rect width="196" height="54" fill="white" transform="translate(0.5)"/>
</clipPath>
</defs>
</svg>
