<svg width="54" height="35" viewBox="0 0 54 35" fill="none" xmlns="http://www.w3.org/2000/svg">
<path fill-rule="evenodd" clip-rule="evenodd" d="M18.9436 15.8097C20.2205 17.4724 21.8134 18.8666 23.6309 19.9122C23.7369 19.9729 23.8442 20.0323 23.9579 20.0879H20.6143C17.5809 17.7133 15.4033 14.4162 14.4106 10.695C13.492 7.27121 12.8732 3.77399 12.5612 0.242922C13.1625 0.107867 13.7753 0.0291552 14.3913 0.00781031C14.5352 1.65876 14.7506 3.31099 15.0375 4.96452C15.0508 5.04392 15.0797 5.11992 15.1224 5.18813C15.1652 5.25634 15.221 5.31544 15.2867 5.36201C15.3524 5.40859 15.4267 5.44173 15.5052 5.45953C15.5838 5.47734 15.6651 5.47945 15.7444 5.46575C15.8239 5.4523 15.9 5.4233 15.9682 5.38042C16.0365 5.33754 16.0956 5.28161 16.1422 5.21584C16.1888 5.15007 16.2219 5.07576 16.2397 4.99717C16.2575 4.91857 16.2596 4.83724 16.2459 4.75783C15.9719 3.16717 15.7642 1.58125 15.6229 6.10352e-05H17.4776C17.7685 3.18252 18.3306 6.33437 19.1578 9.4213C20.0362 12.7125 22.1856 15.5207 25.134 17.2291L25.1689 17.2497C26.6346 18.0988 28.2536 18.65 29.9331 18.8717C31.6125 19.0934 33.3193 18.9812 34.9552 18.5415C35.7819 18.32 36.5845 18.0171 37.3514 17.6373C38.1148 17.2592 38.8387 16.8061 39.5124 16.2847C39.576 16.2355 39.6294 16.1743 39.6694 16.1045C39.7093 16.0347 39.7351 15.9577 39.7453 15.878C39.7555 15.7982 39.7499 15.7172 39.7288 15.6396C39.7077 15.562 39.6715 15.4893 39.6222 15.4257C39.573 15.3621 39.5117 15.3087 39.4419 15.2688C39.3721 15.2288 39.2951 15.203 39.2153 15.1928C39.1355 15.1826 39.0544 15.1883 38.9767 15.2094C38.8991 15.2305 38.8264 15.2667 38.7628 15.3159C38.1531 15.7889 37.4976 16.1996 36.806 16.5418C36.1109 16.8847 35.3836 17.1582 34.6347 17.3582C33.1548 17.7572 31.6105 17.8599 30.0907 17.6604C28.5709 17.4609 27.1056 16.9631 25.7789 16.1956L25.7479 16.1788C23.0791 14.6328 21.134 12.0906 20.3403 9.11126C19.5393 6.12772 18.9911 3.08204 18.7015 0.00651723H20.5549C20.8369 2.92025 21.3595 5.80567 22.1174 8.63329C22.4504 9.87975 23.0263 11.0483 23.8121 12.0718C24.5979 13.0953 25.5781 13.9536 26.6966 14.5976C27.8136 15.2443 29.0474 15.664 30.3272 15.8325C31.607 16.001 32.9075 15.915 34.1539 15.5794C35.4011 15.2473 36.5703 14.6721 37.5944 13.8868C38.6184 13.1016 39.4771 12.1218 40.1211 11.0038C40.768 9.88753 41.188 8.65454 41.3568 7.3756C41.5255 6.09667 41.4399 4.79701 41.1047 3.55127L41.0956 3.52544C40.9586 3.00871 40.8341 2.49198 40.7221 1.97525C40.6049 1.43441 40.5032 0.905626 40.4171 0.388899C40.4058 0.325615 40.3844 0.26455 40.3538 0.208041C41.0486 0.350946 41.7262 0.567472 42.3751 0.853951C42.5173 1.59373 42.687 2.33395 42.8844 3.07459L42.8908 3.09655C43.3786 4.91975 43.4149 6.83423 42.9968 8.67463C42.5733 10.5292 41.7048 12.2529 40.4662 13.6972C40.3607 13.8206 40.3085 13.9808 40.3211 14.1426C40.3337 14.3044 40.4101 14.4546 40.5334 14.5602C40.6568 14.6656 40.8171 14.7178 40.979 14.7052C41.1409 14.6926 41.2911 14.6163 41.3968 14.493C42.7655 12.8954 43.7249 10.989 44.1923 8.93816C44.6572 6.89694 44.6155 4.77304 44.0708 2.75163L44.0643 2.73096C43.9648 2.35763 43.8744 1.98429 43.7904 1.61096C44.6931 2.19559 45.4963 2.92086 46.1697 3.75926C46.7092 7.10141 46.0769 10.5272 44.3797 13.4569L44.3642 13.4879C42.5287 16.6558 39.5762 19.0246 36.0848 20.1305C35.9315 20.1051 35.7763 20.0922 35.6209 20.0917H27.0119C26.0495 19.7758 25.1222 19.3615 24.2448 18.8555C22.5664 17.8899 21.0954 16.6023 19.9165 15.0666C18.7377 13.5309 17.8741 11.7774 17.3755 9.90702C17.2428 9.41183 17.1256 8.95538 17.0239 8.53769C16.9223 8.12001 16.8172 7.65926 16.7086 7.15545C16.6742 6.99653 16.5781 6.85776 16.4415 6.7696C16.3048 6.68143 16.1387 6.65109 15.9796 6.68523C15.9008 6.70224 15.8261 6.73462 15.7597 6.78051C15.6934 6.82641 15.6368 6.88492 15.5931 6.95271C15.5494 7.02049 15.5195 7.09622 15.5051 7.17556C15.4907 7.2549 15.4921 7.3363 15.5092 7.4151C15.601 7.8414 15.7134 8.32196 15.8349 8.82448C15.9564 9.327 16.0753 9.79463 16.1903 10.2235C16.7311 12.2486 17.6668 14.1471 18.9436 15.8097ZM39.6288 23.3561C43.1981 21.7021 46.1658 18.9817 48.1227 15.5703C48.7154 14.5381 49.2108 13.453 49.6025 12.3292C49.8546 13.1947 50.1234 14.1597 50.4013 15.2112C50.1841 15.6582 49.9515 16.097 49.7034 16.5276L49.6852 16.5586C47.5421 20.2642 44.308 23.2193 40.4236 25.0213C40.1886 24.4525 39.9233 23.8966 39.6288 23.3561ZM49.9266 27.3725C50.0889 27.382 50.2484 27.3266 50.3699 27.2187C51.1471 26.529 51.8854 25.7967 52.5813 25.0252C52.689 25.6254 52.7937 26.2347 52.8954 26.8531C52.9329 26.9887 52.9626 27.1282 52.9897 27.2691C51.3582 28.9167 49.5415 30.3702 47.5757 31.6005C46.5924 32.2146 45.5744 32.7714 44.5268 33.2683C43.9377 32.9189 43.416 32.467 42.9863 31.9338C43.2745 31.8111 43.5601 31.6819 43.8431 31.5463C45.4169 30.7935 46.917 29.8957 48.324 28.8645C48.4545 28.7678 48.5414 28.6234 48.5656 28.4629C48.5899 28.3024 48.5494 28.1388 48.4533 28.008C48.3566 27.8775 48.2121 27.7907 48.0515 27.7665C47.8909 27.7423 47.7273 27.7826 47.5964 27.8788C46.2517 28.8657 44.8177 29.7251 43.3132 30.4456C42.9837 30.6032 42.6489 30.7531 42.3103 30.8991C42.1435 30.5686 42.0097 30.2224 41.9109 29.8656C41.8572 29.6757 41.8141 29.4829 41.7817 29.2882C41.7761 29.2652 41.7705 29.241 41.7648 29.2162C41.7586 29.1894 41.7522 29.1619 41.7455 29.1344C45.7413 27.3846 49.2112 24.6231 51.8123 21.1226C51.9751 21.8891 52.135 22.6775 52.2918 23.4879C51.4488 24.4912 50.5339 25.432 49.5544 26.3028C49.433 26.4109 49.3596 26.5628 49.3501 26.7251C49.3407 26.8874 49.396 27.0468 49.504 27.1683C49.6122 27.2896 49.7642 27.3631 49.9266 27.3725ZM50.7423 17.1734C48.4584 21.118 45.008 24.2586 40.8655 26.1632C41.0917 26.7962 41.2804 27.4008 41.4316 27.9317C45.494 26.112 48.9665 23.1933 51.457 19.5052C51.2571 18.6241 51.0564 17.7806 50.8548 16.9745L50.763 17.1373L50.7423 17.1734ZM48.2236 32.6379C47.5153 33.0822 46.7864 33.4943 46.0432 33.8793C46.4873 33.9885 46.9429 34.0436 47.4003 34.0434C48.8149 34.0433 50.1789 33.5169 51.2266 32.5667C52.2742 31.6165 52.9305 30.3105 53.0676 28.9032C51.5785 30.3028 49.9561 31.5536 48.2236 32.6379ZM37.6668 20.8629C40.9283 19.5291 43.6554 17.1522 45.4215 14.1041L45.4396 14.0654C46.8379 11.6473 47.5768 8.90465 47.5824 6.11165C47.7713 6.55178 47.9276 7.00513 48.0503 7.46806C48.1718 7.79619 48.5026 8.73792 48.955 10.1809C48.5582 11.8572 47.9204 13.4672 47.0616 14.9606C45.2056 18.1951 42.3781 20.7636 38.98 22.302C38.6145 21.7611 38.1722 21.2763 37.6668 20.8629ZM38.3403 0.00390823H37.2533C37.4601 1.45844 37.754 2.89926 38.1335 4.31858V4.34184C38.3642 5.1982 38.4233 6.09171 38.3073 6.97097C38.1913 7.85023 37.9025 8.69789 37.4575 9.46519L37.4368 9.49878C36.5414 11.0349 35.074 12.1542 33.3553 12.6121C32.4983 12.8423 31.6042 12.9011 30.7244 12.7852C29.8446 12.6693 28.9963 12.3808 28.2282 11.9364L28.1959 11.9145C26.6594 11.0197 25.5397 9.55351 25.0812 7.83621C24.5878 5.99694 24.1994 4.13112 23.918 2.2478C23.8068 1.50113 23.7129 0.753164 23.6362 0.00390823H21.7828C22.0617 2.81053 22.5687 5.5898 23.2989 8.31418C23.5902 9.4052 24.094 10.428 24.7815 11.324C25.469 12.2201 26.3267 12.9716 27.3054 13.5357C28.2833 14.1011 29.3632 14.4679 30.4833 14.6149C31.6034 14.7618 32.7415 14.6862 33.8322 14.3922C34.9239 14.1014 35.9474 13.5979 36.8439 12.9107C37.7404 12.2234 38.4922 11.366 39.0563 10.3876C40.1946 8.41979 40.5051 6.08093 39.9196 3.88453V3.86387C39.7736 3.31872 39.6418 2.77357 39.5241 2.23359C39.4065 1.69361 39.3031 1.14846 39.2101 0.590395C39.1941 0.494818 39.2012 0.396826 39.2307 0.30451C39.2601 0.212194 39.3111 0.128198 39.3794 0.0594555C39.0342 0.0233645 38.6873 0.00482545 38.3403 0.00390823ZM5.50593 13.081C5.30776 12.3317 5.1225 11.5915 4.95018 10.8604C4.80672 10.239 4.66843 9.59955 4.53531 8.94459C4.78087 8.19276 4.96051 7.68895 5.03935 7.46934C5.2185 6.79404 5.46801 6.13938 5.78379 5.51611C5.83937 5.86619 5.89625 6.21757 5.95699 6.56894C6.30595 8.58332 6.74923 10.5934 7.28688 12.5992C8.22313 16.1124 9.91213 19.3804 12.2369 22.1767C12.6135 22.6202 13.0012 23.0508 13.4001 23.4685C13.0911 24.0498 12.8142 24.6475 12.5704 25.259C9.17501 21.899 6.73657 17.6955 5.50593 13.081ZM4.29736 31.731C4.18589 31.6126 4.126 31.4548 4.13085 31.2922C4.1357 31.1297 4.20487 30.9757 4.3232 30.8642C4.44185 30.7529 4.59982 30.6933 4.76243 30.6984C4.92503 30.7035 5.07897 30.7728 5.19042 30.8913C6.07475 31.8307 7.00882 32.722 7.98857 33.5615C8.57985 33.3004 9.12225 32.9404 9.59247 32.497C9.01346 32.0152 8.4461 31.5152 7.89811 30.9946C6.09273 29.2803 4.47969 27.3744 3.08762 25.3106C2.99685 25.1756 2.96343 25.0101 2.9947 24.8505C3.02596 24.6909 3.11935 24.5502 3.25435 24.4593C3.38937 24.3688 3.55475 24.3354 3.71434 24.3664C3.87393 24.3974 4.01478 24.4902 4.10608 24.6247C5.44724 26.6137 7.00177 28.4504 8.74204 30.102C9.27625 30.6067 9.82597 31.0933 10.3912 31.5618C10.7472 31.0432 11.0145 30.4692 11.1822 29.863C11.1846 29.8508 11.1876 29.8387 11.1912 29.8268C7.42167 26.5979 4.47885 22.5151 2.60813 17.9188C2.54717 17.7682 2.54846 17.5996 2.6117 17.45C2.67493 17.3003 2.79497 17.1818 2.94547 17.1205C3.09636 17.0599 3.26509 17.0613 3.41493 17.1244C3.56477 17.1876 3.68358 17.3074 3.74548 17.4577C5.45926 21.6782 8.1157 25.4513 11.5118 28.4885C11.6578 27.9356 11.8555 27.2561 12.1037 26.5262C8.34839 22.9531 5.65478 18.4117 4.32061 13.4039C4.13623 12.715 3.96134 12.0152 3.79591 11.3047C2.26638 16.4071 1.06582 21.6023 0.201629 26.8582C0.0923325 27.259 0.0268951 27.6705 0.00646909 28.0855C0.00646909 28.1305 0.00486326 28.1753 0.00325174 28.2201C0.00162876 28.2654 0 28.3107 0 28.3567C-0.000339691 29.1039 0.146722 29.8439 0.432759 30.5342C0.718796 31.2245 1.1382 31.8517 1.66698 32.3799C2.19576 32.9081 2.82352 33.3268 3.51439 33.6123C4.20525 33.8977 4.94564 34.0442 5.6932 34.0433C5.9962 34.043 6.2987 34.0188 6.5979 33.971C5.8009 33.2596 5.03405 32.513 4.29736 31.731ZM26.2725 7.5197C25.7916 5.72637 25.4131 3.90713 25.1391 2.0708C25.0357 1.38011 24.9478 0.692 24.8754 0.00647391H26.7314C26.9928 2.38256 27.4347 4.7353 28.0535 7.04431C28.1794 7.51165 28.3964 7.94954 28.692 8.33284C28.9877 8.71613 29.3562 9.03729 29.7763 9.27787C30.1946 9.52032 30.6567 9.67767 31.136 9.74086C31.6153 9.80405 32.1025 9.77182 32.5693 9.64604C33.038 9.52253 33.4776 9.30745 33.8627 9.01323C34.2478 8.719 34.5708 8.35145 34.813 7.93179C35.0554 7.51371 35.2129 7.05189 35.2763 6.57282C35.3397 6.09376 35.3079 5.6069 35.1826 5.14017L35.1761 5.11691C34.7276 3.43783 34.39 1.7311 34.1655 0.00776699H36.0253C36.2404 1.57605 36.5538 3.12928 36.9636 4.65832V4.67769C37.3383 6.08782 37.1379 7.58892 36.4065 8.85156L36.3897 8.88386C35.6559 10.1394 34.4548 11.0538 33.0488 11.4275C32.3476 11.6163 31.6161 11.6648 30.8961 11.5701C30.1761 11.4755 29.482 11.2395 28.8535 10.8758L28.8212 10.8591C27.5639 10.126 26.6476 8.92552 26.2725 7.5197ZM7.16654 6.36614C7.51119 8.33746 7.94676 10.3109 8.47321 12.2865C9.36282 15.6297 10.9699 18.7392 13.1828 21.399C13.4646 21.7375 13.7554 22.0673 14.0552 22.3886C14.413 21.8469 14.8445 21.3578 15.3373 20.9353C15.3123 20.8312 15.3151 20.7224 15.3452 20.6198C15.3754 20.5171 15.4319 20.4241 15.5092 20.3501C15.6189 20.2481 15.7621 20.1897 15.9118 20.1859C16.0615 20.1821 16.2075 20.2331 16.3222 20.3294C16.685 20.1763 17.0747 20.0969 17.4686 20.0956H18.7145C16.055 17.6552 14.1484 14.5062 13.219 11.0193C12.303 7.60469 11.6791 4.11843 11.3541 0.59817C10.7381 0.818819 10.1455 1.09964 9.58469 1.43656C9.61829 1.76339 9.6532 2.09022 9.69197 2.41705C10.0546 5.48141 10.6382 8.51561 11.4381 11.496C11.767 12.719 12.206 13.9098 12.7499 15.0536C13.2918 16.1962 13.9373 17.2867 14.6782 18.3116C14.7728 18.4432 14.8112 18.6069 14.785 18.7668C14.7588 18.9267 14.6702 19.0696 14.5386 19.1642C14.4069 19.2589 14.243 19.2976 14.0829 19.2717C13.9227 19.2457 13.7794 19.1574 13.6843 19.026C12.9001 17.9404 12.2162 16.786 11.641 15.5768C11.0654 14.3635 10.6013 13.1006 10.2542 11.8034C9.43899 8.76623 8.84421 5.67419 8.4745 2.5514C8.46603 2.48192 8.45866 2.41189 8.45131 2.34203L8.45131 2.34201C8.44746 2.30536 8.44361 2.26876 8.43961 2.23232C7.825 2.72883 7.27103 3.29597 6.78916 3.92202C6.90031 4.73974 7.02437 5.5523 7.16654 6.36614ZM29.6639 7.58594C29.4674 7.32969 29.3234 7.03721 29.2402 6.72524C28.6488 4.51972 28.2237 2.27298 27.9685 0.00390823H29.8257C30.073 2.11123 30.473 4.19783 31.0225 6.24727C31.0649 6.40409 31.1677 6.53776 31.3084 6.61909C31.4491 6.70041 31.6163 6.72279 31.7734 6.68132C31.9305 6.63923 32.0644 6.53655 32.1458 6.39583C32.2273 6.25512 32.2495 6.08786 32.2077 5.93078C31.6866 3.98455 31.3035 2.00402 31.0613 0.00390823H32.9198C33.1526 1.84225 33.5097 3.66271 33.9886 5.4528L33.9951 5.47476C34.1568 6.09775 34.0672 6.75929 33.7457 7.3169C33.5842 7.59652 33.3691 7.84155 33.1127 8.03795C32.8563 8.23435 32.5637 8.37827 32.2516 8.46145C31.9398 8.54562 31.6145 8.56749 31.2943 8.52582C30.974 8.48414 30.6652 8.37974 30.3853 8.21859C30.1056 8.05718 29.8604 7.8422 29.6639 7.58594Z" fill="url(#paint0_linear_215_1125)"/>
<defs>
<linearGradient id="paint0_linear_215_1125" x1="5.30674" y1="3.40443" x2="57.2959" y2="22.5792" gradientUnits="userSpaceOnUse">
<stop stop-color="#FF4C10"/>
<stop offset="1" stop-color="#B903E7"/>
</linearGradient>
</defs>
</svg>
