<svg width="127" height="24" viewBox="0 0 127 24" fill="none" xmlns="http://www.w3.org/2000/svg">
<path d="M6.81645 18.5099C5.95135 18.5099 5.10227 18.4378 4.26921 18.2936C3.45217 18.1334 2.68319 17.9091 1.96228 17.6208C1.24136 17.3164 0.616563 16.9559 0.0878906 16.5394L1.31345 13.848C2.16253 14.4407 3.04365 14.8813 3.95681 15.1697C4.86998 15.458 5.8312 15.6022 6.84048 15.6022C7.92987 15.6022 8.76293 15.426 9.33967 15.0735C9.93242 14.7211 10.2288 14.2325 10.2288 13.6077C10.2288 13.2392 10.1086 12.9268 9.86834 12.6705C9.62803 12.4141 9.24354 12.1899 8.71487 11.9976C8.1862 11.8054 7.4813 11.6131 6.60018 11.4209C5.49477 11.1966 4.54957 10.9323 3.76457 10.6279C2.97957 10.3235 2.33876 9.97104 1.84212 9.57053C1.36151 9.17002 1.00906 8.70542 0.784778 8.17675C0.560492 7.63206 0.448349 7.00726 0.448349 6.30237C0.448349 5.29308 0.728706 4.38793 1.28942 3.58691C1.86615 2.76987 2.65916 2.12906 3.66845 1.66447C4.69375 1.19987 5.88727 0.967579 7.249 0.967579C8.06604 0.967579 8.85905 1.04768 9.62803 1.20788C10.413 1.36809 11.1339 1.59237 11.7908 1.88074C12.4476 2.16911 13.0003 2.52156 13.4489 2.93809L12.2474 5.62951C11.4784 5.03676 10.6774 4.5962 9.84431 4.30783C9.01125 4.01946 8.16217 3.87528 7.29706 3.87528C6.31982 3.87528 5.54283 4.07553 4.9661 4.47604C4.38936 4.86053 4.101 5.38921 4.101 6.06206C4.101 6.43053 4.21314 6.74293 4.43743 6.99925C4.66171 7.25558 5.03018 7.48788 5.54283 7.69614C6.07151 7.88839 6.79242 8.08864 7.70559 8.2969C8.77895 8.52119 9.70813 8.78553 10.4931 9.08991C11.2781 9.3943 11.9189 9.74675 12.4156 10.1473C12.9282 10.5317 13.3047 10.9883 13.545 11.517C13.7853 12.0297 13.9055 12.6224 13.9055 13.2953C13.9055 14.3686 13.6251 15.2978 13.0644 16.0828C12.5037 16.8518 11.6947 17.4526 10.6373 17.8851C9.57997 18.3016 8.30635 18.5099 6.81645 18.5099Z" fill="white"/>
<path d="M13.123 8.82558V6.11012H22.1585V8.82558H13.123ZM22.1585 15.3619V18.1494C21.822 18.2776 21.4856 18.3657 21.1492 18.4138C20.8128 18.4618 20.4523 18.4859 20.0678 18.4859C18.5619 18.4859 17.4084 18.0613 16.6074 17.2123C15.8224 16.3471 15.4299 15.1536 15.4299 13.6317V3.25048L19.0585 2.07299V13.5596C19.0585 14.0402 19.1466 14.4247 19.3229 14.7131C19.4991 15.0014 19.7314 15.2097 20.0198 15.3379C20.3081 15.45 20.6205 15.5061 20.9569 15.5061C21.1492 15.5061 21.3334 15.4981 21.5097 15.482C21.7019 15.45 21.9182 15.41 22.1585 15.3619Z" fill="white"/>
<path d="M27.1204 18.4859C26.0631 18.4859 25.1259 18.2295 24.3088 17.7169C23.4918 17.2042 22.859 16.4753 22.4104 15.5301C21.9619 14.5849 21.7376 13.4795 21.7376 12.2139C21.7376 10.9483 21.9619 9.83486 22.4104 8.87364C22.875 7.8964 23.5078 7.14344 24.3088 6.61476C25.1259 6.07007 26.0631 5.79772 27.1204 5.79772C28.0977 5.79772 28.9628 6.03803 29.7157 6.51864C30.4687 6.99925 30.9813 7.64808 31.2537 8.46512L30.9653 8.65736V6.11012H34.5459V18.2936H30.9653V15.7944L31.2537 15.8425C30.9813 16.6756 30.4687 17.3244 29.7157 17.789C28.9628 18.2536 28.0977 18.4859 27.1204 18.4859ZM28.1778 15.7224C29.0589 15.7224 29.7397 15.418 30.2204 14.8092C30.717 14.2004 30.9653 13.3193 30.9653 12.1658C30.9653 11.0124 30.717 10.1312 30.2204 9.52247C29.7397 8.89767 29.0589 8.58527 28.1778 8.58527C27.2966 8.58527 26.5998 8.90568 26.0871 9.5465C25.5905 10.1873 25.3422 11.0764 25.3422 12.2139C25.3422 13.3513 25.5825 14.2244 26.0631 14.8332C26.5597 15.426 27.2646 15.7224 28.1778 15.7224Z" fill="white"/>
<path d="M48.0002 18.2936H44.4196V15.3138L44.708 15.8425C44.4356 16.6756 43.923 17.3244 43.17 17.789C42.4171 18.2536 41.552 18.4859 40.5747 18.4859C39.5174 18.4859 38.5802 18.2215 37.7631 17.6929C36.9621 17.1482 36.3293 16.4032 35.8647 15.458C35.4162 14.4968 35.1919 13.3754 35.1919 12.0937C35.1919 10.8281 35.4162 9.72272 35.8647 8.77752C36.3133 7.83231 36.9461 7.10339 37.7631 6.59073C38.5802 6.06206 39.5174 5.79772 40.5747 5.79772C41.552 5.79772 42.4171 6.04604 43.17 6.54267C43.923 7.02328 44.4356 7.6641 44.708 8.46512L44.3716 8.89767V0.607119H48.0002V18.2936ZM41.6321 15.7224C42.5132 15.7224 43.1941 15.418 43.6747 14.8092C44.1713 14.2004 44.4196 13.3113 44.4196 12.1418C44.4196 11.0204 44.1713 10.1473 43.6747 9.52247C43.1941 8.89767 42.5132 8.58527 41.6321 8.58527C40.7189 8.58527 40.014 8.88966 39.5174 9.49843C39.0368 10.1072 38.7965 10.9723 38.7965 12.0937C38.7965 13.2632 39.0448 14.1604 39.5414 14.7852C40.0541 15.41 40.751 15.7224 41.6321 15.7224Z" fill="white"/>
<path d="M49.247 18.2936V6.11012H52.8756V18.2936H49.247ZM49.1028 0.390844H53.0198V3.80319H49.1028V0.390844Z" fill="white"/>
<path d="M58.9412 18.4859C57.8839 18.4859 56.9467 18.2295 56.1296 17.7169C55.3126 17.2042 54.6798 16.4753 54.2312 15.5301C53.7827 14.5849 53.5584 13.4795 53.5584 12.2139C53.5584 10.9483 53.7827 9.83486 54.2312 8.87364C54.6958 7.8964 55.3286 7.14344 56.1296 6.61476C56.9467 6.07007 57.8839 5.79772 58.9412 5.79772C59.9185 5.79772 60.7836 6.03803 61.5365 6.51864C62.2895 6.99925 62.8021 7.64808 63.0745 8.46512L62.7861 8.65736V6.11012H66.3667V18.2936H62.7861V15.7944L63.0745 15.8425C62.8021 16.6756 62.2895 17.3244 61.5365 17.789C60.7836 18.2536 59.9185 18.4859 58.9412 18.4859ZM59.9986 15.7224C60.8797 15.7224 61.5606 15.418 62.0412 14.8092C62.5378 14.2004 62.7861 13.3193 62.7861 12.1658C62.7861 11.0124 62.5378 10.1312 62.0412 9.52247C61.5606 8.89767 60.8797 8.58527 59.9986 8.58527C59.1175 8.58527 58.4206 8.90568 57.9079 9.5465C57.4113 10.1873 57.163 11.0764 57.163 12.2139C57.163 13.3513 57.4033 14.2244 57.8839 14.8332C58.3805 15.426 59.0854 15.7224 59.9986 15.7224Z" fill="white"/>
<path d="M66.2437 8.82558V6.11012H74.7025V8.82558H66.2437ZM75.1831 3.63497C74.7185 3.52283 74.326 3.46676 74.0056 3.46676C73.6692 3.46676 73.3568 3.53084 73.0684 3.659C72.78 3.78717 72.5557 3.99543 72.3955 4.2838C72.2353 4.57217 72.1552 4.95666 72.1552 5.43727V18.2936H68.5266V5.34114C68.5266 3.81921 68.9111 2.6337 69.6801 1.78462C70.4651 0.919517 71.6105 0.486966 73.1165 0.486966C73.4849 0.486966 73.8374 0.510997 74.1738 0.559058C74.5262 0.60712 74.8627 0.687222 75.1831 0.799364V3.63497Z" fill="white"/>
<path d="M83.909 0.270691H87.874V3.75513H83.909V0.270691ZM87.7058 6.11012V18.2936H84.0772V8.82558H73.4557V6.11012H87.7058ZM75.7626 18.2936V5.12487C75.7626 3.98742 75.9469 3.09028 76.3153 2.43344C76.6838 1.76059 77.2766 1.27998 78.0936 0.991609C78.9106 0.687222 80.016 0.535028 81.4098 0.535028H82.3951V3.15436H81.7943C81.1215 3.15436 80.6088 3.21043 80.2564 3.32258C79.9199 3.4187 79.6876 3.63497 79.5595 3.9714C79.4473 4.29181 79.3913 4.78844 79.3913 5.4613V18.2936H75.7626Z" fill="white"/>
<path d="M88.9603 18.2936V9.59456C88.9603 9.01782 88.9443 8.44109 88.9122 7.86435C88.8962 7.2716 88.8482 6.68686 88.7681 6.11012H92.1804L92.4447 8.48915L92.1804 8.46512C92.5969 7.60002 93.1737 6.94318 93.9106 6.49461C94.6636 6.03002 95.5287 5.79772 96.5059 5.79772C99.3736 5.79772 100.807 7.5039 100.807 10.9162V18.2936H97.1788V11.0845C97.1788 10.2194 97.0186 9.59456 96.6981 9.21007C96.3938 8.82558 95.9051 8.63333 95.2323 8.63333C94.4313 8.63333 93.7904 8.88966 93.3098 9.40231C92.8292 9.91496 92.5889 10.6038 92.5889 11.4689V18.2936H88.9603Z" fill="white"/>
<path d="M101.992 18.2936V6.11012H105.621V18.2936H101.992ZM101.848 0.390844H105.765V3.80319H101.848V0.390844Z" fill="white"/>
<path d="M105.535 8.82558V6.11012H114.57V8.82558H105.535ZM114.57 15.3619V18.1494C114.234 18.2776 113.897 18.3657 113.561 18.4138C113.224 18.4618 112.864 18.4859 112.479 18.4859C110.974 18.4859 109.82 18.0613 109.019 17.2123C108.234 16.3471 107.842 15.1536 107.842 13.6317V3.25048L111.47 2.07299V13.5596C111.47 14.0402 111.558 14.4247 111.735 14.7131C111.911 15.0014 112.143 15.2097 112.431 15.3379C112.72 15.45 113.032 15.5061 113.369 15.5061C113.561 15.5061 113.745 15.4981 113.921 15.482C114.114 15.45 114.33 15.41 114.57 15.3619Z" fill="white"/>
<path d="M114.913 23.7726L114.072 20.9851C114.824 20.8409 115.441 20.6566 115.922 20.4323C116.419 20.2241 116.827 19.9597 117.147 19.6393C117.468 19.3189 117.732 18.9264 117.94 18.4618L118.878 16.3712L119.839 14.9534L123.419 6.11012H127L121.401 18.9184C120.904 20.0398 120.335 20.929 119.695 21.5858C119.054 22.2427 118.333 22.7393 117.532 23.0757C116.731 23.4121 115.858 23.6444 114.913 23.7726ZM118.974 19.2068L113.279 6.11012H117.051L120.56 14.9534L118.974 19.2068Z" fill="white"/>
</svg>
