<svg width="20" height="20" viewBox="0 0 20 20" fill="none" xmlns="http://www.w3.org/2000/svg">
<path fill-rule="evenodd" clip-rule="evenodd" d="M2.5 19.375V2.5C2.5 1.83696 2.76339 1.20107 3.23223 0.732233C3.70107 0.263392 4.33696 0 5 0L15 0C15.663 0 16.2989 0.263392 16.7678 0.732233C17.2366 1.20107 17.5 1.83696 17.5 2.5V19.375C17.5001 19.4835 17.4719 19.5902 17.4182 19.6845C17.3645 19.7789 17.2872 19.8576 17.1939 19.913C17.1005 19.9684 16.9944 19.9985 16.8859 20.0004C16.7774 20.0023 16.6702 19.9758 16.575 19.9237L10 16.3363L3.425 19.9237C3.32979 19.9758 3.22265 20.0023 3.11413 20.0004C3.00561 19.9985 2.89946 19.9684 2.80611 19.913C2.71277 19.8576 2.63546 19.7789 2.58178 19.6845C2.52811 19.5902 2.49992 19.4835 2.5 19.375ZM13.5675 7.3175C13.6849 7.20014 13.7508 7.04097 13.7508 6.875C13.7508 6.70903 13.6849 6.54986 13.5675 6.4325C13.4501 6.31514 13.291 6.24921 13.125 6.24921C12.959 6.24921 12.7999 6.31514 12.6825 6.4325L9.375 9.74125L7.9425 8.3075C7.88439 8.24939 7.8154 8.20329 7.73948 8.17185C7.66356 8.1404 7.58218 8.12421 7.5 8.12421C7.41782 8.12421 7.33644 8.1404 7.26052 8.17185C7.1846 8.20329 7.11561 8.24939 7.0575 8.3075C6.99939 8.36561 6.95329 8.4346 6.92185 8.51052C6.8904 8.58644 6.87421 8.66782 6.87421 8.75C6.87421 8.83218 6.8904 8.91356 6.92185 8.98948C6.95329 9.0654 6.99939 9.13439 7.0575 9.1925L8.9325 11.0675C8.99056 11.1257 9.05953 11.1719 9.13546 11.2034C9.21139 11.2349 9.29279 11.2511 9.375 11.2511C9.45721 11.2511 9.53861 11.2349 9.61454 11.2034C9.69047 11.1719 9.75944 11.1257 9.8175 11.0675L13.5675 7.3175Z" fill="white"/>
</svg>
