<svg width="20" height="20" viewBox="0 0 20 20" fill="none" xmlns="http://www.w3.org/2000/svg">
<path d="M11.7562 1.3125C11.24 -0.4375 8.76 -0.4375 8.24375 1.3125L8.11875 1.7375C8.04161 1.99949 7.90682 2.2409 7.72424 2.44402C7.54166 2.64713 7.31594 2.80681 7.06362 2.91133C6.8113 3.01585 6.53878 3.06258 6.26606 3.04807C5.99333 3.03356 5.72731 2.9582 5.4875 2.8275L5.1 2.615C3.49625 1.7425 1.7425 3.49625 2.61625 5.09875L2.8275 5.4875C3.385 6.5125 2.85625 7.78875 1.7375 8.11875L1.3125 8.24375C-0.4375 8.76 -0.4375 11.24 1.3125 11.7562L1.7375 11.8813C1.99949 11.9584 2.2409 12.0932 2.44402 12.2758C2.64713 12.4583 2.80681 12.6841 2.91133 12.9364C3.01585 13.1887 3.06258 13.4612 3.04807 13.7339C3.03356 14.0067 2.9582 14.2727 2.8275 14.5125L2.615 14.9C1.7425 16.5038 3.49625 18.2575 5.09875 17.3837L5.4875 17.1725C5.72731 17.0418 5.99333 16.9664 6.26606 16.9519C6.53878 16.9374 6.8113 16.9841 7.06362 17.0887C7.31594 17.1932 7.54166 17.3529 7.72424 17.556C7.90682 17.7591 8.04161 18.0005 8.11875 18.2625L8.24375 18.6875C8.76 20.4375 11.24 20.4375 11.7562 18.6875L11.8813 18.2625C11.9584 18.0005 12.0932 17.7591 12.2758 17.556C12.4583 17.3529 12.6841 17.1932 12.9364 17.0887C13.1887 16.9841 13.4612 16.9374 13.7339 16.9519C14.0067 16.9664 14.2727 17.0418 14.5125 17.1725L14.9 17.385C16.5038 18.2575 18.2575 16.5037 17.3837 14.9012L17.1725 14.5125C17.0418 14.2727 16.9664 14.0067 16.9519 13.7339C16.9374 13.4612 16.9841 13.1887 17.0887 12.9364C17.1932 12.6841 17.3529 12.4583 17.556 12.2758C17.7591 12.0932 18.0005 11.9584 18.2625 11.8813L18.6875 11.7562C20.4375 11.24 20.4375 8.76 18.6875 8.24375L18.2625 8.11875C18.0005 8.04161 17.7591 7.90682 17.556 7.72424C17.3529 7.54166 17.1932 7.31594 17.0887 7.06362C16.9841 6.8113 16.9374 6.53878 16.9519 6.26606C16.9664 5.99333 17.0418 5.72731 17.1725 5.4875L17.385 5.1C18.2575 3.49625 16.5037 1.7425 14.9012 2.61625L14.5125 2.8275C14.2727 2.9582 14.0067 3.03356 13.7339 3.04807C13.4612 3.06258 13.1887 3.01585 12.9364 2.91133C12.6841 2.80681 12.4583 2.64713 12.2758 2.44402C12.0932 2.2409 11.9584 1.99949 11.8813 1.7375L11.7562 1.3125V1.3125ZM10 13.6625C9.02864 13.6625 8.09707 13.2766 7.41022 12.5898C6.72337 11.9029 6.3375 10.9714 6.3375 10C6.3375 9.02864 6.72337 8.09707 7.41022 7.41022C8.09707 6.72337 9.02864 6.3375 10 6.3375C10.971 6.3375 11.9023 6.72324 12.5889 7.40986C13.2755 8.09647 13.6612 9.02773 13.6612 9.99875C13.6612 10.9698 13.2755 11.901 12.5889 12.5876C11.9023 13.2743 10.971 13.66 10 13.66V13.6625Z" fill="white"/>
</svg>
