<svg width="24" height="24" viewBox="0 0 24 24" fill="none" xmlns="http://www.w3.org/2000/svg">
  <path fill-rule="evenodd" clip-rule="evenodd" d="M0.201714 8.66828C0.0725714 8.76066 0.000571429 8.90721 0 9.05804V9.06402C0.000571429 9.12761 0.0137143 9.19204 0.0408571 9.25334L2.338 14.4576C2.43971 14.6883 2.70229 14.8012 2.94029 14.7168C4.44429 14.1805 9.65257 12.4838 13.0231 13.399C13.0231 13.399 9.642 13.5946 6.58457 15.9922C6.41229 16.1276 6.35486 16.3631 6.44314 16.5633C6.69143 17.1241 7.18971 18.2515 7.47171 18.8887L7.86771 19.8176C7.962 20.038 8.26314 20.0645 8.396 19.865C9.10943 18.7906 10.3123 18.254 11.4677 17.7856C12.6514 17.306 13.8866 16.9482 15.1466 16.7352C16.4891 16.5082 17.86 16.4475 19.2169 16.5675C19.4429 16.5875 19.6526 16.4489 19.72 16.2328L20.7577 12.9163C20.8189 12.7201 20.7486 12.5057 20.5817 12.3851C19.4246 11.5469 14.8409 8.73129 6.78029 9.86236C6.78029 9.86236 13.6586 5.91116 22.3909 10.2516C22.6554 10.3833 22.9749 10.245 23.0631 9.96386L23.978 7.0391C23.9923 6.99376 23.9991 6.94786 24 6.90253V6.88856C23.9974 6.72204 23.9083 6.56409 23.7569 6.47827C22.6609 5.85813 18.9503 4 13.846 4C9.93371 3.99971 5.20314 5.09116 0.201714 8.66828Z" fill="url(#paint0_linear_376_1306)"/>
  <defs>
    <linearGradient id="paint0_linear_376_1306" x1="-1.56738e-07" y1="8.44444" x2="19.8974" y2="21.7094" gradientUnits="userSpaceOnUse">
      <stop stop-color="#FF4C1D"/>
      <stop offset="1" stop-color="#9B0063"/>
    </linearGradient>
  </defs>
</svg>
