<?xml version="1.0" encoding="UTF-8"?>
<svg data-bbox="65 16 245 343" xmlns="http://www.w3.org/2000/svg" viewBox="0 0 375 375" height="375" width="375" data-type="ugc">
    <g>
        <path fill="#3ECF8E" d="M218.909 28.483c0-6.894-5.587-12.483-12.478-12.483a12.435 12.435 0 0 0-8.786 3.62l-1.733 1.928-96.237 130.11h95.505l23.249-119.652.424-2.338c.037-.39.056-.785.056-1.185z"/>
        <path fill="#3ECF8E" d="M65 205.336c0 11.03 8.939 19.972 19.965 19.972h95.905l14.31-73.65H99.675l-28.939 39.125-1.864 2.729A19.889 19.889 0 0 0 65 205.336z"/>
        <path fill="#3ECF8E" d="M310 171.631c0-11.031-8.939-19.973-19.965-19.973H195.18l-14.31 73.65h94.332l30.402-41.103 1.213-1.75A19.884 19.884 0 0 0 310 171.631z"/>
        <path fill="#3ECF8E" d="M157.533 346.517c0 6.894 5.586 12.483 12.478 12.483 3.695 0 7.016-1.607 9.3-4.161l.492-.554 95.399-128.977H180.87l-22.885 117.781-.061.316a12.476 12.476 0 0 0-.391 3.112z"/>
        <path fill="url(#0b970ce6-1b7e-471a-9b10-73cacc436eba)" d="M157.533 346.517c0 6.894 5.586 12.483 12.478 12.483 3.695 0 7.016-1.607 9.3-4.161l.492-.554 95.399-128.977H180.87l-22.885 117.781-.061.316a12.476 12.476 0 0 0-.391 3.112z"/>
        <defs fill="none">
            <linearGradient gradientUnits="userSpaceOnUse" y2="359" x2="167" y1="237" x1="236" id="0b970ce6-1b7e-471a-9b10-73cacc436eba">
                <stop stop-color="#23915F"/>
                <stop stop-opacity="0" stop-color="#3ECF8E" offset="1"/>
            </linearGradient>
        </defs>
    </g>
</svg>
