<svg width="20" height="20" viewBox="0 0 20 20" fill="none" xmlns="http://www.w3.org/2000/svg">
<path d="M9.375 1.25V10H10.625V1.25H9.375Z" fill="white"/>
<path d="M3.74996 11.015C3.74966 9.89869 4.04839 8.8027 4.61511 7.84096C5.18182 6.87922 5.99582 6.08685 6.97246 5.54624L6.36621 4.45374C4.91687 5.25632 3.77406 6.51621 3.11618 8.03671C2.45831 9.55721 2.3224 11.2528 2.72967 12.8586C3.13694 14.4645 4.06447 15.8904 5.36746 16.9136C6.67045 17.9368 8.27557 18.4998 9.93222 18.5146C11.5889 18.5295 13.2038 17.9954 14.525 16.9957C15.8461 15.9961 16.7991 14.5871 17.2351 12.9888C17.6711 11.3905 17.5657 9.69276 16.9352 8.1607C16.3047 6.62864 15.1847 5.34845 13.75 4.51999L13.1237 5.60124C14.074 6.14959 14.8632 6.93844 15.412 7.88848C15.9607 8.83853 16.2498 9.91629 16.25 11.0134C16.2502 12.1106 15.9616 13.1885 15.4131 14.1387C14.8647 15.089 14.0758 15.8781 13.1257 16.4268C12.1757 16.9755 11.0979 17.2645 10.0007 17.2646C8.90358 17.2648 7.82573 16.9761 6.87551 16.4276C5.9253 15.8791 5.13621 15.0902 4.58756 14.1401C4.0389 13.1899 3.75003 12.1121 3.74996 11.015Z" fill="white"/>
</svg>
